<svg width="57" height="60" viewBox="0 0 57 60" fill="none" xmlns="http://www.w3.org/2000/svg">
<rect x="44.0547" y="0.101562" width="6.22224" height="31.1112" transform="rotate(90 44.0547 0.101562)" fill="black"/>
<rect x="44.1367" y="53.1926" width="6.54548" height="31.2728" transform="rotate(90 44.1367 53.1926)" fill="black"/>
<rect x="12.9434" y="6.32324" width="6.22224" height="6.22224" transform="rotate(90 12.9434 6.32324)" fill="black"/>
<rect x="50.2773" y="6.32324" width="6.22224" height="6.22224" transform="rotate(90 50.2773 6.32324)" fill="black"/>
<rect x="12.9434" y="46.9319" width="6.22224" height="6.22224" transform="rotate(90 12.9434 46.9319)" fill="black"/>
<rect x="50.2773" y="46.9319" width="6.22224" height="6.22224" transform="rotate(90 50.2773 46.9319)" fill="black"/>
<rect x="6.72266" y="12.5454" width="34.3861" height="6.22224" transform="rotate(90 6.72266 12.5454)" fill="black"/>
<rect x="56.5" y="12.5454" width="34.3861" height="6.22224" transform="rotate(90 56.5 12.5454)" fill="black"/>
<rect x="22.7227" y="21.3879" width="6.22224" height="6.22224" transform="rotate(90 22.7227 21.3879)" fill="black"/>
<rect x="22.4414" y="34.8147" width="6.22224" height="6.22224" transform="rotate(90 22.4414 34.8147)" fill="black"/>
<rect x="41.4355" y="34.8147" width="6.22224" height="6.22224" transform="rotate(90 41.4355 34.8147)" fill="black"/>
<rect x="35.2129" y="41.0371" width="6.22224" height="12.772" transform="rotate(90 35.2129 41.0371)" fill="black"/>
<rect x="41.6309" y="21.3879" width="6.22224" height="6.22224" transform="rotate(90 41.6309 21.3879)" fill="black"/>
</svg>
