<svg width="100%" height="100%" viewBox="0 0 405 398" fill="none" xmlns="http://www.w3.org/2000/svg">
<path d="M144.998 0.0712891H252.08V20.0237H295.346V38.2463H324.466V57.5654H341.208V73.2375H361.884V110.632H375.964V142.853H403.523V143.361H404.126V259.159H375.964V291.887H361.884V324.842H341.208V346.596H324.466V361.474H306.941V379.206H275.043V398.009H252.08V379.206H251.465V309.12H235.394V286.166H251.465V270.345H252.76V270.364H290.789V251.978H309.805V235.809H327.262V146.922H309.805V92.0596H271.775V109.589H252.76V129.226H234.414V115.87H167.961V129.28H148.041V109.589H129.025V92.0596H90.9961V146.922H73.5391V235.809H90.9961V251.978H110.012V270.364H145.946V308.449H110.012V289.376H90.9961V270.364H52.9648V289.376H71.9805V327.522H90.9961V346.596H145.946L145.947 398.009H122.984V379.206H89.8477V361.474H72.6719V346.596H53.7031V324.842H37.9141V291.887H18.9453V259.159H0.960938V143.361H18.9453V110.632H37.9141V73.2375H53.7031V57.5654H72.6719V38.2463H108.613V20.0237H144.998V0.0712891Z" fill="black"/>
</svg>
