<svg xmlns="http://www.w3.org/2000/svg" width="17" height="12" viewBox="0 0 17 12" fill="none">
  <path d="M15.6166 5.46427L16.5273 5.46427L16.5273 4.55356L15.6166 4.55356L15.6166 3.64285L8.37887 3.64285L8.37887 2.73214L7.46815 2.73214L7.46815 3.64285L6.60537 3.64285L6.60537 4.55356L15.6166 4.55356L15.6166 5.46427Z" fill="black"/>
  <path d="M11.4945 7.2857L11.4945 6.37499L8.09127 6.37499L8.09127 5.46427L15.6166 5.46427L15.6166 6.37499L12.4052 6.37499L12.4052 7.2857L11.4945 7.2857Z" fill="black"/>
  <path d="M10.5837 8.19641L11.4945 8.19641L11.4945 7.2857L7.18056 7.2857L7.18056 8.19641L9.67304 8.19641L9.67304 9.05919L6.41364 9.05919L6.41364 9.9699L8.76232 9.9699L8.76232 10.8806L2.77079 10.8806L2.77079 9.9699L0.94937 9.9699L0.94937 5.46427L2.4832 5.46427L2.4832 4.55356L3.39391 4.55356L3.39391 3.64285L4.30463 3.64285L4.30463 2.73214L3.39391 2.73214L3.39391 3.64285L2.4832 3.64285L2.4832 4.55356L0.94937 4.55356L0.94937 5.46427L0.0386579 5.46427L0.0386577 9.9699L0.94937 9.9699L0.94937 10.8806L2.77079 10.8806L2.77079 11.7913L8.76232 11.7913L8.76232 10.8806L9.67304 10.8806L9.67304 9.05919L10.5837 9.05919L10.5837 8.19641Z" fill="black"/>
  <path d="M7.46815 0.910712L8.37887 0.910712L8.37887 2.73214L9.28958 2.73214L9.28958 0.910712L8.37887 0.910712L8.37887 -3.16373e-07L7.46815 -3.9599e-07L7.46815 0.910712Z" fill="black"/>
  <path d="M7.46815 1.82142L6.55744 1.82142L6.55744 0.910712L7.46815 0.910712L7.46815 1.82142Z" fill="black"/>
  <path d="M6.55744 1.82142L6.55744 2.73214L4.30463 2.73214L4.30463 1.82142L6.55744 1.82142Z" fill="black"/>
  <path d="M7.46815 2.73214L8.37887 2.73214L8.37887 0.910712L7.46815 0.910712L7.46815 1.82142L6.55744 1.82142L6.55744 2.73214L4.30463 2.73214L4.30463 3.64285L3.39391 3.64285L3.39391 4.55356L2.4832 4.55356L2.4832 5.46427L0.94937 5.46427L0.94937 9.9699L2.77079 9.9699L2.77079 10.8806L8.76232 10.8806L8.76232 9.9699L6.41364 9.9699L6.41364 9.05919L9.67304 9.05919L9.67304 8.19641L7.18056 8.19641L7.18056 7.2857L11.4945 7.2857L11.4945 6.37499L8.09127 6.37499L8.09127 5.46427L15.6166 5.46427L15.6166 4.55356L6.60537 4.55356L6.60537 3.64285L7.46815 3.64285L7.46815 2.73214Z" fill="black"/>
  <path d="M7.46815 2.73214L8.37887 2.73214L8.37887 0.910712L7.46815 0.910712L7.46815 1.82142L6.55744 1.82142L6.55744 2.73214L4.30463 2.73214L4.30463 3.64285L3.39391 3.64285L3.39391 4.55356L2.4832 4.55356L2.4832 5.46427L0.94937 5.46427L0.94937 9.9699L2.77079 9.9699L2.77079 10.8806L8.76232 10.8806L8.76232 9.9699L6.41364 9.9699L6.41364 9.05919L9.67304 9.05919L9.67304 8.19641L7.18056 8.19641L7.18056 7.2857L11.4945 7.2857L11.4945 6.37499L8.09127 6.37499L8.09127 5.46427L15.6166 5.46427L15.6166 4.55356L6.60537 4.55356L6.60537 3.64285L7.46815 3.64285L7.46815 2.73214Z" fill="white"/>
</svg>