<svg width="397" height="396" viewBox="0 0 397 396" fill="none" xmlns="http://www.w3.org/2000/svg">
<path d="M149.493 168.014H166.85V150.664H233.77V168.014H251.127V234.934H233.77V252.285H166.85V234.934H149.493V168.014Z" fill="black"/>
<path fill-rule="evenodd" clip-rule="evenodd" d="M26.4297 345.981V374.142H50.6074V395.745H346.276V374.142H370.454V345.981H396.04V50.3125H370.454V22.1519H346.276V0.548828H50.6074V22.1519H26.4297V50.3125H0.84375V345.981H26.4297ZM110.748 89.7139V72.3638H292.914V89.7139H110.748ZM93.3916 107.064L93.3906 89.7139H110.748V107.064H93.3916ZM93.3916 289.229H76.041V107.064H93.3916V289.229ZM110.748 306.58H93.3906L93.3916 289.229H110.748V306.58ZM292.914 306.58V323.93H110.748V306.58H292.914ZM310.271 289.229V306.58H292.914L292.913 289.229H310.271ZM310.271 107.064H327.621V289.229H310.271V107.064ZM310.271 107.064V89.7139H292.914L292.913 107.064H310.271ZM149.493 168.014H132.143V234.934H149.493L149.492 252.285H166.85V269.635H233.77V252.285H251.127V234.934H268.478V168.014H251.127V150.664H233.77V133.313H166.85V150.664H149.492L149.493 168.014ZM280.351 120.638H262.993V137.988H280.351V120.638Z" fill="black"/>
</svg>
