<svg width="100%" height="100%" viewBox="0 0 409 409" fill="none" xmlns="http://www.w3.org/2000/svg">
<path d="M56.9609 28.1519V-0.00878906H352.63V28.1519H56.9609Z" fill="black"/>
<path d="M28.79 56.3125L28.7891 28.1519H56.9609V56.3125H28.79Z" fill="black"/>
<path d="M28.79 351.981H0.628906V56.3125H28.79V351.981Z" fill="black"/>
<path d="M56.9609 380.142H28.7891L28.79 351.981H56.9609V380.142Z" fill="black"/>
<path d="M352.63 380.142V408.302H56.9609V380.142H352.63Z" fill="black"/>
<path d="M380.801 351.981H352.629L352.63 380.142H380.801V351.981Z" fill="black"/>
<path d="M380.801 56.3125H352.629L352.63 28.1519H380.801V56.3125Z" fill="black"/>
<path d="M380.801 56.3125V351.981H408.962V56.3125H380.801Z" fill="black"/>
<path d="M102.555 148.746H130.716V257.363H102.555V148.746Z" fill="black"/>
<path d="M158.887 285.524H130.715L130.716 257.363H158.887V285.524Z" fill="black"/>
<path d="M267.504 285.524V313.685H158.887V285.524H267.504Z" fill="black"/>
<path d="M295.676 257.363V285.524H267.504V257.363H295.676Z" fill="black"/>
<path d="M295.676 148.746H323.837V257.363H295.676V148.746Z" fill="black"/>
<path d="M267.504 120.585H295.676V148.746H267.504V120.585Z" fill="black"/>
<path d="M158.887 120.585V92.4248H267.504V120.585H158.887Z" fill="black"/>
<path d="M158.887 120.585H130.715L130.716 148.746H158.887V120.585Z" fill="black"/>
<path d="M310.066 78.3445H338.238V106.505H310.066V78.3445Z" fill="black"/>
</svg>
