<svg width="100%" height="100%" viewBox="0 0 132 69" fill="none" xmlns="http://www.w3.org/2000/svg">
<rect x="2.82812" y="5.65503" width="2.82751" height="2.82751" fill="black"/>
<rect x="123.666" y="29.6145" width="2.82751" height="2.82751" transform="rotate(180 123.666 29.6145)" fill="black"/>
<rect x="5.6543" y="2.82739" width="2.82751" height="2.82751" fill="black"/>
<rect x="120.838" y="32.4419" width="2.82751" height="2.82751" transform="rotate(180 120.838 32.4419)" fill="black"/>
<rect x="97.9219" y="38.0969" width="2.82751" height="2.82751" transform="rotate(180 97.9219 38.0969)" fill="black"/>
<rect x="100.748" y="40.9243" width="2.82751" height="2.82751" transform="rotate(180 100.748 40.9243)" fill="black"/>
<rect x="103.576" y="43.752" width="2.82751" height="2.82751" transform="rotate(180 103.576 43.752)" fill="black"/>
<rect x="106.553" y="46.5793" width="2.82751" height="2.82751" transform="rotate(180 106.553 46.5793)" fill="black"/>
<rect x="109.379" y="43.752" width="2.82751" height="11.31" transform="rotate(180 109.379 43.752)" fill="black"/>
<rect x="2.82812" y="26.7871" width="2.82751" height="2.82751" fill="black"/>
<rect x="123.666" y="8.48242" width="2.82751" height="2.82751" transform="rotate(180 123.666 8.48242)" fill="black"/>
<rect x="5.6543" y="29.6145" width="2.82751" height="2.82751" fill="black"/>
<rect x="120.838" y="5.65503" width="2.82751" height="2.82751" transform="rotate(180 120.838 5.65503)" fill="black"/>
<rect y="8.48242" width="2.82751" height="18.3044" fill="black"/>
<rect x="126.494" y="26.7871" width="2.82751" height="18.3044" transform="rotate(180 126.494 26.7871)" fill="black"/>
<rect x="118.012" width="2.82751" height="109.529" transform="rotate(90 118.012 0)" fill="black"/>
<rect x="95.0938" y="32.4419" width="2.82751" height="86.6111" transform="rotate(90 95.0938 32.4419)" fill="black"/>
<rect x="118.012" y="32.4419" width="2.82751" height="11.4589" transform="rotate(90 118.012 32.4419)" fill="black"/>
<path d="M11.1159 9.29544H21.8351V12.1174H14.4629V15.8582H21.4413V18.6146H14.4629V24.8274H11.1159V9.29544ZM24.383 13.2331H27.5331L27.5987 15.552C28.0581 13.9988 28.9332 13.2331 30.3989 13.2331H31.4489V15.7051H30.3551C28.4519 15.7051 27.7081 16.5801 27.7081 18.374V24.8274H24.383V13.2331ZM32.4928 19.0303C32.4928 15.3551 34.8554 12.9706 38.4431 12.9706C41.637 12.9706 44.1308 15.1801 44.109 19.2709V19.8834H35.9492C36.0367 21.6116 36.9555 22.6398 38.4431 22.6398C39.4056 22.6398 40.2588 22.0929 40.6307 21.196L43.9558 21.4366C43.2558 23.6898 41.0901 25.0899 38.4431 25.0899C34.8554 25.0899 32.4928 22.7054 32.4928 19.0303ZM35.9711 17.8927H40.7619C40.5869 16.1426 39.5806 15.4207 38.4431 15.4207C37.043 15.4207 36.1461 16.3614 35.9711 17.8927ZM46.0636 17.1052H53.589V19.774H46.0636V17.1052ZM61.6366 9.29544C66.6681 9.29544 69.4901 12.0956 69.4901 17.0833C69.4901 22.0491 66.7337 24.8274 61.7679 24.8274H56.277V9.29544H61.6366ZM59.624 22.0054H61.6366C64.6555 22.0054 66.0993 20.4084 66.0993 17.0833C66.0993 13.7144 64.6555 12.1174 61.6366 12.1174H59.624V22.0054ZM71.4534 19.0303C71.4534 15.3551 73.8161 12.9706 77.4037 12.9706C80.5976 12.9706 83.0915 15.1801 83.0696 19.2709V19.8834H74.9099C74.9974 21.6116 75.9161 22.6398 77.4037 22.6398C78.3663 22.6398 79.2194 22.0929 79.5913 21.196L82.9165 21.4366C82.2164 23.6898 80.0507 25.0899 77.4037 25.0899C73.8161 25.0899 71.4534 22.7054 71.4534 19.0303ZM74.9317 17.8927H79.7226C79.5476 16.1426 78.5413 15.4207 77.4037 15.4207C76.0037 15.4207 75.1067 16.3614 74.9317 17.8927ZM85.4008 13.2331H88.3759L88.4634 15.0926C89.0978 13.5613 90.3885 12.9706 91.9198 12.9706C94.4574 12.9706 95.9231 14.6769 95.9231 17.3677V24.8274H92.6198V18.4615C92.6198 16.6239 92.2042 15.5957 90.8479 15.5957C89.4478 15.5957 88.7259 16.6239 88.7259 18.4615V24.8274H85.4008V13.2331ZM98.6511 13.2331H101.626L101.714 15.0926C102.348 13.5613 103.639 12.9706 105.17 12.9706C107.708 12.9706 109.173 14.6769 109.173 17.3677V24.8274H105.87V18.4615C105.87 16.6239 105.455 15.5957 104.098 15.5957C102.698 15.5957 101.976 16.6239 101.976 18.4615V24.8274H98.6511V13.2331ZM112.243 13.2331H115.568V24.8274H112.243V13.2331ZM112.2 11.7237V9.29544H115.612V11.7237H112.2Z" fill="black"/>
<rect width="2.82751" height="14.1375" transform="matrix(4.37114e-08 1 1 1.92249e-08 112.207 40.9243)" fill="black"/>
<rect width="2.82751" height="14.1375" transform="matrix(4.37114e-08 1 1 1.92249e-08 112.207 65.033)" fill="black"/>
<rect width="2.82751" height="2.82751" transform="matrix(4.37114e-08 1 1 1.92249e-08 126.346 43.752)" fill="black"/>
<rect width="2.82751" height="2.82751" transform="matrix(4.37114e-08 1 1 1.92249e-08 109.379 43.752)" fill="black"/>
<rect width="2.82751" height="2.82751" transform="matrix(4.37114e-08 1 1 1.92249e-08 126.346 62.2051)" fill="black"/>
<rect width="2.82751" height="2.82751" transform="matrix(4.37114e-08 1 1 1.92249e-08 109.379 62.2051)" fill="black"/>
<rect width="15.6257" height="2.82751" transform="matrix(4.37114e-08 1 1 1.92249e-08 129.172 46.5793)" fill="black"/>
<rect width="15.6257" height="2.82751" transform="matrix(4.37114e-08 1 1 1.92249e-08 106.553 46.5793)" fill="black"/>
<rect width="2.82751" height="2.82751" transform="matrix(4.37114e-08 1 1 1.92249e-08 120.244 48.3652)" fill="black"/>
<rect width="2.82751" height="2.82751" transform="matrix(4.37114e-08 1 1 1.92249e-08 111.611 48.3652)" fill="black"/>
<rect width="2.82751" height="9.22661" transform="matrix(4.37114e-08 1 1 1.92249e-08 112.355 52.6809)" fill="black"/>
</svg>
