<svg width="100%" height="100%" viewBox="0 0 132 69" fill="none" xmlns="http://www.w3.org/2000/svg">
<rect x="2.82812" y="6.51538" width="2.82751" height="2.82751" fill="black"/>
<rect x="123.666" y="30.4749" width="2.82751" height="2.82751" transform="rotate(180 123.666 30.4749)" fill="black"/>
<rect x="5.6543" y="3.68774" width="2.82751" height="2.82751" fill="black"/>
<rect x="120.838" y="33.3022" width="2.82751" height="2.82751" transform="rotate(180 120.838 33.3022)" fill="black"/>
<rect x="97.9219" y="38.9573" width="2.82751" height="2.82751" transform="rotate(180 97.9219 38.9573)" fill="black"/>
<rect x="100.748" y="41.7847" width="2.82751" height="2.82751" transform="rotate(180 100.748 41.7847)" fill="black"/>
<rect x="103.576" y="44.6123" width="2.82751" height="2.82751" transform="rotate(180 103.576 44.6123)" fill="black"/>
<rect x="106.553" y="47.4397" width="2.82751" height="2.82751" transform="rotate(180 106.553 47.4397)" fill="black"/>
<rect x="109.379" y="44.6123" width="2.82751" height="11.31" transform="rotate(180 109.379 44.6123)" fill="black"/>
<rect x="2.82812" y="27.6475" width="2.82751" height="2.82751" fill="black"/>
<rect x="123.666" y="9.34277" width="2.82751" height="2.82751" transform="rotate(180 123.666 9.34277)" fill="black"/>
<rect x="5.6543" y="30.4749" width="2.82751" height="2.82751" fill="black"/>
<rect x="120.838" y="6.51538" width="2.82751" height="2.82751" transform="rotate(180 120.838 6.51538)" fill="black"/>
<rect y="9.34277" width="2.82751" height="18.3044" fill="black"/>
<rect x="126.494" y="27.6475" width="2.82751" height="18.3044" transform="rotate(180 126.494 27.6475)" fill="black"/>
<rect x="118.012" y="0.860352" width="2.82751" height="109.529" transform="rotate(90 118.012 0.860352)" fill="black"/>
<rect x="95.0938" y="33.3022" width="2.82751" height="86.6111" transform="rotate(90 95.0938 33.3022)" fill="black"/>
<rect x="118.012" y="33.3022" width="2.82751" height="11.4589" transform="rotate(90 118.012 33.3022)" fill="black"/>
<path d="M11.1159 10.1558H21.8351V12.9778H14.4629V16.7186H21.4413V19.475H14.4629V25.6877H11.1159V10.1558ZM24.383 14.0935H27.5331L27.5987 16.4123C28.0581 14.8591 28.9332 14.0935 30.3989 14.0935H31.4489V16.5655H30.3551C28.4519 16.5655 27.7081 17.4405 27.7081 19.2343V25.6877H24.383V14.0935ZM32.4928 19.8906C32.4928 16.2154 34.8554 13.831 38.4431 13.831C41.637 13.831 44.1308 16.0404 44.109 20.1312V20.7438H35.9492C36.0367 22.472 36.9555 23.5001 38.4431 23.5001C39.4056 23.5001 40.2588 22.9532 40.6307 22.0563L43.9558 22.297C43.2558 24.5502 41.0901 25.9503 38.4431 25.9503C34.8554 25.9503 32.4928 23.5658 32.4928 19.8906ZM35.9711 18.7531H40.7619C40.5869 17.003 39.5806 16.2811 38.4431 16.2811C37.043 16.2811 36.1461 17.2217 35.9711 18.7531ZM46.0636 17.9655H53.589V20.6344H46.0636V17.9655ZM61.6366 10.1558C66.6681 10.1558 69.4901 12.9559 69.4901 17.9436C69.4901 22.9095 66.7337 25.6877 61.7679 25.6877H56.277V10.1558H61.6366ZM59.624 22.8657H61.6366C64.6555 22.8657 66.0993 21.2688 66.0993 17.9436C66.0993 14.5747 64.6555 12.9778 61.6366 12.9778H59.624V22.8657ZM71.4534 19.8906C71.4534 16.2154 73.8161 13.831 77.4037 13.831C80.5976 13.831 83.0915 16.0404 83.0696 20.1312V20.7438H74.9099C74.9974 22.472 75.9161 23.5001 77.4037 23.5001C78.3663 23.5001 79.2194 22.9532 79.5913 22.0563L82.9165 22.297C82.2164 24.5502 80.0507 25.9503 77.4037 25.9503C73.8161 25.9503 71.4534 23.5658 71.4534 19.8906ZM74.9317 18.7531H79.7226C79.5476 17.003 78.5413 16.2811 77.4037 16.2811C76.0037 16.2811 75.1067 17.2217 74.9317 18.7531ZM85.4008 14.0935H88.3759L88.4634 15.9529C89.0978 14.4216 90.3885 13.831 91.9198 13.831C94.4574 13.831 95.9231 15.5373 95.9231 18.228V25.6877H92.6198V19.3218C92.6198 17.4842 92.2042 16.4561 90.8479 16.4561C89.4478 16.4561 88.7259 17.4842 88.7259 19.3218V25.6877H85.4008V14.0935ZM98.6511 14.0935H101.626L101.714 15.9529C102.348 14.4216 103.639 13.831 105.17 13.831C107.708 13.831 109.173 15.5373 109.173 18.228V25.6877H105.87V19.3218C105.87 17.4842 105.455 16.4561 104.098 16.4561C102.698 16.4561 101.976 17.4842 101.976 19.3218V25.6877H98.6511V14.0935ZM112.243 14.0935H115.568V25.6877H112.243V14.0935ZM112.2 12.584V10.1558H115.612V12.584H112.2Z" fill="black"/>
<rect width="2.82751" height="14.1375" transform="matrix(4.37114e-08 1 1 1.92249e-08 112.207 41.7847)" fill="black"/>
<rect width="2.82751" height="14.1375" transform="matrix(4.37114e-08 1 1 1.92249e-08 112.207 65.8933)" fill="black"/>
<rect width="2.82751" height="2.82751" transform="matrix(4.37114e-08 1 1 1.92249e-08 126.346 44.6123)" fill="black"/>
<rect width="2.82751" height="2.82751" transform="matrix(4.37114e-08 1 1 1.92249e-08 109.379 44.6123)" fill="black"/>
<rect width="2.82751" height="2.82751" transform="matrix(4.37114e-08 1 1 1.92249e-08 126.346 63.0654)" fill="black"/>
<rect width="2.82751" height="2.82751" transform="matrix(4.37114e-08 1 1 1.92249e-08 109.379 63.0654)" fill="black"/>
<rect width="15.6257" height="2.82751" transform="matrix(4.37114e-08 1 1 1.92249e-08 129.172 47.4397)" fill="black"/>
<rect width="15.6257" height="2.82751" transform="matrix(4.37114e-08 1 1 1.92249e-08 106.553 47.4397)" fill="black"/>
<rect width="2.82751" height="2.82751" transform="matrix(4.37114e-08 1 1 1.92249e-08 120.244 55)" fill="black"/>
<rect width="2.82751" height="2.82751" transform="matrix(4.37114e-08 1 1 1.92249e-08 113 55)" fill="black"/>
<rect width="2.82751" height="2.82751" transform="matrix(4.37114e-08 1 1 1.92249e-08 113 59)" fill="black"/>
<rect width="2.82751" height="2.82751" transform="matrix(4.37114e-08 1 1 1.92249e-08 120 59)" fill="black"/>
<rect width="3" height="6" transform="matrix(4.37114e-08 1 1 1.92249e-08 115 61)" fill="black"/>
</svg>
