<svg width="311" height="372" viewBox="0 0 311 372" fill="none" xmlns="http://www.w3.org/2000/svg">
<path d="M276.61 63.9282L74.8184 34.3643L79.7803 0.490723L283.023 30.2666L278.061 64.1401L310.484 68.8906L270.385 342.599L236.51 337.636L276.61 63.9282Z" fill="black"/>
<path d="M236.51 337.636L231.548 371.509L28.3047 341.733L33.2676 307.86L0.84375 303.109L40.9434 29.4014L74.8184 34.3643L34.7178 308.072L236.51 337.636Z" fill="black"/>
<path d="M97.5352 68.4692L245.732 90.1807L240.77 124.055L92.5723 102.343L97.5352 68.4692Z" fill="black"/>
<path d="M236.354 154.185L88.1562 132.473L83.1934 166.347L231.391 188.059L236.354 154.185Z" fill="black"/>
<path d="M78.7812 196.478L180.401 211.365L175.438 245.239L73.8184 230.351L78.7812 196.478Z" fill="black"/>
</svg>
